# xmcd CD database file
#
# Track frame offsets:
#	150
#	34420
#	62550
#	76697
#	84767
#	102350
#	112830
#	125142
#	133390
#	151457
#	177300
#
# Disc length: 2572 seconds
#
# Revision: 0
# Processed by: cddbd v1.5.1PL0 Copyright (c) Steve Scherf et al.
# Submitted via: CDex 1.51
#
DISCID=8b0a0a0b
DTITLE=帝国歌劇団 - 五周年記念公演 海神別荘 泉鏡花原作より (DISC1)
DYEAR=2001
DGENRE=Game
TTITLE0=前説（2001年8月14日昼の部より）
TTITLE1=花組レビュウ
TTITLE2=バスは行く行く夢乗せて
TTITLE3=物語のはじまり
TTITLE4=考える足
TTITLE5=美しきものたちよ
TTITLE6=ラムネの歌
TTITLE7=怪人デベソ
TTITLE8=幸せな夢
TTITLE9=口ずさむ歌
TTITLE10=浪曲（第一幕）
EXTD=YEAR: 2001
EXTT0=
EXTT1=
EXTT2=
EXTT3=
EXTT4=
EXTT5=
EXTT6=
EXTT7=
EXTT8=
EXTT9=
EXTT10=
PLAYORDER=
